HIERARCHY
ROOT root
{
	OFFSET	0	13.1	24.9
	CHANNELS 6  Xposition Yposition Zposition Xrotation Yrotation Zrotation
	JOINT spine_1
	{
		OFFSET	0	9.99999	0
		CHANNELS 3  Xrotation Yrotation Zrotation
		JOINT spine_2
		{
			OFFSET	0	112	-10
			CHANNELS 3  Xrotation Yrotation Zrotation
			JOINT spine_3
			{
				OFFSET	0	206.5	19.3
				CHANNELS 3  Xrotation Yrotation Zrotation
				JOINT spine_4
				{
					OFFSET	0	110.4	14.6
					CHANNELS 3  Xrotation Yrotation Zrotation
					JOINT neck_1
					{
						OFFSET	0	71.8	-50.3
						CHANNELS 3  Xrotation Yrotation Zrotation
						JOINT neck_2
						{
							OFFSET	0	86.2	-25.8
							CHANNELS 3  Xrotation Yrotation Zrotation
							JOINT head_ee
							{
								OFFSET	0	179.8	-8.7
								CHANNELS 3  Xrotation Yrotation Zrotation
								End Site
								{
									OFFSET	1	0	0
								}
							}
						}
					}
					JOINT left_clavicle
					{
						OFFSET	-43.2	22.4	-70.8
						CHANNELS 3  Xrotation Yrotation Zrotation
						JOINT left_shoulder
						{
							OFFSET	-93.9	-5.79999	48.7
							CHANNELS 3  Xrotation Yrotation Zrotation
							JOINT left_elbow
							{
								OFFSET	-291.4	-30.8	15.2
								CHANNELS 3  Xrotation Yrotation Zrotation
								JOINT left_lowarm_twist
								{
									OFFSET	-110.7	-3.89999	13.6
									CHANNELS 3  Xrotation Yrotation Zrotation
									JOINT left_hand
									{
										OFFSET	-110.7	-3.89999	13.6
										CHANNELS 3  Xrotation Yrotation Zrotation
										JOINT left_ee
										{
											OFFSET	-80.8	-5.10001	12.1
											CHANNELS 3  Xrotation Yrotation Zrotation
											End Site
											{
												OFFSET	1	0	0
											}
										}
									}
								}
							}
						}
					}
					JOINT right_clavicle
					{
						OFFSET	43.2	22.4	-70.8
						CHANNELS 3  Xrotation Yrotation Zrotation
						JOINT right_shoulder
						{
							OFFSET	93.9	-5.79999	48.7
							CHANNELS 3  Xrotation Yrotation Zrotation
							JOINT right_elbow
							{
								OFFSET	291.4	-30.8	15.2
								CHANNELS 3  Xrotation Yrotation Zrotation
								JOINT right_lowarm_twist
								{
									OFFSET	110.7	-3.89999	13.6
									CHANNELS 3  Xrotation Yrotation Zrotation
									JOINT right_hand
									{
										OFFSET	110.7	-3.89999	13.6
										CHANNELS 3  Xrotation Yrotation Zrotation
										JOINT right_ee
										{
											OFFSET	80.8	-5.10001	12.1
											CHANNELS 3  Xrotation Yrotation Zrotation
											End Site
											{
												OFFSET	1	0	0
											}
										}
									}
								}
							}
						}
					}
				}
			}
		}
	}
	JOINT left_hip
	{
		OFFSET	-82.8	-127.5	0.300001
		CHANNELS 3  Xrotation Yrotation Zrotation
		JOINT left_knee
		{
			OFFSET	-28.2	-396.7	2.2
			CHANNELS 3  Xrotation Yrotation Zrotation
			JOINT left_ankle
			{
				OFFSET	-11.7	-411.3	35.4
				CHANNELS 3  Xrotation Yrotation Zrotation
				JOINT left_toes
				{
					OFFSET	0	-60	-88.6
					CHANNELS 3  Xrotation Yrotation Zrotation
					JOINT left_foot_ee
					{
						OFFSET	-22.5	-16.5	-42.2
						CHANNELS 3  Xrotation Yrotation Zrotation
						End Site
						{
							OFFSET	1	0	0
						}
					}
				}
			}
		}
	}
	JOINT right_hip
	{
		OFFSET	82.8	-127.5	0.300001
		CHANNELS 3  Xrotation Yrotation Zrotation
		JOINT right_knee
		{
			OFFSET	28.2	-396.7	2.2
			CHANNELS 3  Xrotation Yrotation Zrotation
			JOINT right_ankle
			{
				OFFSET	11.7	-411.3	35.4
				CHANNELS 3  Xrotation Yrotation Zrotation
				JOINT right_toes
				{
					OFFSET	0	-60	-88.6
					CHANNELS 3  Xrotation Yrotation Zrotation
					JOINT right_foot_ee
					{
						OFFSET	22.5	-16.5	-42.2
						CHANNELS 3  Xrotation Yrotation Zrotation
						End Site
						{
							OFFSET	1	0	0
						}
					}
				}
			}
		}
	}
}
MOTION
Frames: 15
Frame Time: 0.02
1417.46 685.634 -1324.33 1.27001 69.1306 -3.85308 -0.409288 0.285795 0.825734 -0.408939 0.232674 0.842245 -0.405213 0.0442995 0.872667 -0.40623 0.18156 0.854721 -6.14559 9.22275 -2.20463 -6.08521 18.6788 -0.469388 -0.0 0.0 -0.0 3.79394 15.65 7.87145 18.5784 -33.8718 55.8292 4.29291 -64.7952 2.72487 -43.6299 -3.34522 4.30901 -7.42295 25.8685 -33.5931 -0.0 0.0 -0.0 3.47436 -4.8474 -6.95908 -46.8905 34.0648 -61.0532 0.725106 19.7581 -0.12628 33.7297 0.0639025 4.24668 2.10741 -29.767 -23.5217 0.0 0.0 0.0 -22.3739 11.4264 10.5478 2.03305 -0.0890434 -0.299244 34.5128 0.741359 -4.36664 -20.2576 0.0 0.0 -0.0 0.0 -0.0 28.9801 24.5722 -5.52776 4.41298 0.206718 0.645356 -11.9789 4.59641 -1.83969 -4.08547 0.0 0.0 0.0 0.0 0.0 
1405.41 684.408 -1323.79 0.114216 69.3897 -3.43495 -0.40333 0.351001 0.92631 -0.402899 0.291349 0.946765 -0.397689 0.0790241 0.987419 -0.398973 0.23397 0.962551 -5.74946 9.05302 -2.41232 -5.67042 18.496 -0.776776 -0.0 0.0 -0.0 3.84897 15.2555 7.95328 17.4176 -33.4419 55.2029 4.43739 -65.5169 2.85599 -43.5728 -3.33889 4.30529 -7.36656 27.1828 -31.8441 -0.0 0.0 -0.0 3.71686 -4.60744 -7.39614 -47.3683 34.6 -60.5442 0.752788 20.4509 -0.135795 33.4225 0.0520496 4.20925 2.3482 -30.0188 -25.01 0.0 0.0 0.0 -22.5835 11.5091 11.7379 2.68338 -0.119766 -0.394292 34.6755 0.67328 -4.38295 -19.6122 0.0 0.0 -0.0 0.0 -0.0 28.4021 24.1866 -4.69559 5.02801 0.239463 0.733997 -14.1202 1.76911 -2.15095 -4.43097 0.0 0.0 0.0 0.0 0.0 
1389.62 684.504 -1330.4 -2.02704 69.675 -1.11184 -0.261235 0.411142 0.942728 -0.260809 0.350324 0.966976 -0.254488 0.134769 1.01961 -0.255818 0.294097 0.985532 -4.18886 8.20051 -3.15912 -4.04508 17.4128 -1.93627 -0.0 0.0 -0.0 3.74406 15.218 7.78341 17.464 -33.2085 55.4197 4.41715 -65.4181 2.83757 -43.3442 -3.31364 4.29037 -7.1618 27.6199 -30.0322 -0.0 0.0 -0.0 3.74896 -4.21439 -7.43818 -47.3248 35.5475 -61.7487 0.727611 19.821 -0.127128 31.7729 -0.00816368 4.0072 2.4935 -30.125 -25.9065 0.0 0.0 0.0 -22.4162 10.9762 11.4858 2.98098 -0.134186 -0.437672 35.2699 -0.666627 -4.45046 -19.2736 0.0 0.0 -0.0 0.0 -0.0 27.8876 24.2557 -5.09805 5.61451 0.271576 0.818202 -11.8308 1.35638 -1.79548 -4.96053 0.0 0.0 0.0 0.0 0.0 
1373.36 684.578 -1334.02 -2.87669 70.3948 -0.147932 -0.102854 0.443039 0.952772 -0.10243 0.381517 0.97903 -0.095509 0.165536 1.03761 -0.0968625 0.327322 0.998454 -3.22587 7.68245 -2.70929 -3.08009 16.0801 -1.68868 -0.0 0.0 -0.0 3.24677 14.9006 6.97231 15.9677 -32.8001 55.6002 4.4307 -65.4844 2.8499 -43.0278 -3.27878 4.26954 -7.09677 28.5164 -28.7219 -0.0 0.0 -0.0 3.94299 -4.07193 -7.79338 -47.1163 36.3237 -61.3143 0.754321 20.4891 -0.136331 31.0489 -0.0327458 3.91801 2.6753 -30.2103 -27.0295 0.0 0.0 0.0 -22.7493 11.0869 11.4008 2.25378 -0.0993496 -0.331542 37.2013 -1.40883 -4.63878 -18.6402 0.0 0.0 -0.0 0.0 -0.0 27.2369 23.9887 -5.07828 5.47172 0.263678 0.797731 -9.44024 -0.486918 -1.42082 -5.54075 0.0 0.0 0.0 0.0 0.0 
1353.08 688.643 -1341.23 -3.34328 69.9811 0.227147 0.0242932 0.401936 0.94979 0.0247307 0.340686 0.973439 0.0308848 0.129067 1.02322 0.0295397 0.289038 0.990002 -1.586 7.51715 -2.4863 -1.40874 15.5216 -1.69755 -0.0 0.0 -0.0 2.90327 15.0401 6.42339 14.1615 -31.9974 55.9343 4.40041 -65.3359 2.82236 -42.6925 -3.24196 4.24726 -7.06964 29.5402 -27.5444 -0.0 0.0 -0.0 4.6871 -4.12677 -9.18527 -46.6336 37.0196 -60.959 0.606598 16.7252 -0.0891708 29.5611 -0.0797127 3.73377 2.57838 -29.9076 -26.3845 0.0 0.0 0.0 -22.5767 11.3041 11.0326 1.72731 -0.0749739 -0.254442 38.6745 -1.3675 -4.77159 -18.945 0.0 0.0 -0.0 0.0 -0.0 26.3843 23.8313 -4.88683 4.50744 0.211685 0.658993 -7.11204 -1.38058 -1.06427 -5.88846 0.0 0.0 0.0 0.0 0.0 
1328.35 693.88 -1353.33 -3.89772 70.8112 0.605415 0.157483 0.319276 0.989446 0.157991 0.255671 1.00775 0.162824 0.0411257 1.03886 0.161376 0.20467 1.01933 -0.440833 7.74006 -2.10106 -0.241245 15.5422 -1.40798 -0.0 0.0 -0.0 2.34919 14.9569 5.52788 11.554 -31.2148 56.1344 4.48252 -65.7344 2.89709 -41.9352 -3.15928 4.19616 -6.54898 29.1876 -24.6684 -0.0 0.0 -0.0 4.72412 -3.89879 -9.24854 -46.0874 37.4897 -61.0081 0.659254 18.0858 -0.104923 28.646 -0.106216 3.61989 2.50619 -29.8398 -25.9322 0.0 0.0 0.0 -22.5847 9.8347 9.54835 -0.252357 0.0103087 0.0373546 33.7455 -2.95462 -4.32412 -17.9625 0.0 0.0 -0.0 0.0 -0.0 25.0005 23.7634 -4.52455 3.1625 0.143091 0.464095 -3.43181 -0.542324 -0.510988 -5.01749 0.0 0.0 0.0 0.0 0.0 
1308.82 693.609 -1365.26 -4.47092 70.9919 1.38607 0.338876 0.2379 1.02667 0.339446 0.172091 1.03973 0.34286 -0.0439741 1.05296 0.341334 0.122863 1.04669 -0.489846 7.97077 -0.79998 -0.329342 14.9067 0.0218241 -0.0 0.0 -0.0 1.42078 15.0734 4.04609 8.92662 -30.5765 55.7628 4.64912 -66.5067 3.04944 -40.6355 -3.019 4.10593 -6.31198 29.1839 -23.2422 -0.0 0.0 -0.0 5.29332 -4.84479 -10.3325 -45.7388 37.6902 -60.1377 0.623057 17.1527 -0.0939662 28.1537 -0.119718 3.55846 2.3818 -29.7315 -25.1579 0.0 0.0 0.0 -22.2388 9.83978 8.63458 -0.708963 0.0285422 0.105054 34.9152 -1.85468 -4.42716 -17.4369 0.0 0.0 -0.0 0.0 -0.0 23.5839 23.931 -5.20377 2.85906 0.128251 0.419908 1.08615 0.467686 0.160434 -3.79491 0.0 0.0 0.0 0.0 0.0 
1289.94 696.157 -1372.18 -3.97006 71.5235 0.974721 0.518527 0.173229 1.05447 0.51914 0.105783 1.06336 0.521348 -0.110412 1.06289 0.519776 0.0588271 1.06699 -0.2419 7.62184 -0.732234 -0.091713 14.2062 0.030939 -0.0 0.0 -0.0 1.24429 14.8604 3.74586 6.91349 -30.0406 55.8513 4.08497 -63.6839 2.53759 -39.8862 -2.93907 4.05247 -5.90697 28.9011 -21.0794 -0.0 0.0 -0.0 5.63961 -4.92542 -10.9801 -44.476 37.892 -59.5222 0.58728 16.221 -0.0836928 27.6212 -0.133731 3.49187 2.4071 -29.9088 -25.3442 0.0 0.0 0.0 -21.6009 9.46915 7.80366 -2.19634 0.0841812 0.326532 33.4396 -2.18819 -4.28526 -17.6453 0.0 0.0 -0.0 0.0 -0.0 22.1785 23.8629 -5.57261 2.08284 0.0913571 0.306532 3.4765 -1.20835 0.508089 -3.41019 0.0 0.0 0.0 0.0 0.0 
1272.13 700.884 -1379.06 -3.81978 71.4756 0.934988 0.637538 0.174819 1.05959 0.638156 0.107043 1.06857 0.640379 -0.108007 1.06847 0.638791 0.0620842 1.07212 -1.13585 7.71942 -0.266333 -1.01177 14.0825 0.63514 -0.0 0.0 -0.0 0.752977 14.9265 2.96347 4.70364 -29.8709 55.8369 3.95932 -62.9671 2.42532 -39.7563 -2.92528 4.0431 -5.4339 27.1104 -19.7142 -0.0 0.0 -0.0 6.23218 -5.28055 -12.0887 -42.9955 38.2973 -59.3147 0.543996 15.082 -0.0720149 27.2486 -0.143166 3.44521 2.23284 -28.8444 -24.0816 0.0 0.0 0.0 -20.3641 9.33504 7.08452 -5.31237 0.181985 0.794689 34.2534 -2.17303 -4.36581 -17.7479 0.0 0.0 -0.0 0.0 -0.0 21.0911 24.3852 -5.81502 1.67225 0.0724655 0.246366 7.0385 0.188744 1.02084 -2.64383 0.0 0.0 0.0 0.0 0.0 
1257.17 700.32 -1385.65 -3.65919 71.2664 0.889154 0.751606 0.212176 1.08705 0.752252 0.142578 1.09834 0.755217 -0.0768964 1.10489 0.753527 0.098554 1.10317 -1.84498 7.70658 -0.0320081 -1.73948 13.9354 0.956185 -0.0 0.0 -0.0 0.439343 15.2101 2.49008 2.64931 -29.7219 55.9561 3.76708 -61.7976 2.25496 -39.6115 -2.90994 4.03261 -5.08604 25.873 -18.5749 -0.0 0.0 -0.0 6.8383 -5.46864 -13.2238 -41.6142 38.6985 -58.7066 0.519822 14.4404 -0.0658552 26.9832 -0.149701 3.41194 2.11747 -28.1598 -23.2382 0.0 0.0 0.0 -19.887 9.04032 6.01275 -7.53946 0.236208 1.13214 34.8822 -2.07756 -4.42623 -17.8011 0.0 0.0 -0.0 0.0 -0.0 20.1733 24.583 -6.20576 1.41959 0.0610551 0.209276 9.57926 1.25699 1.38121 -2.08407 0.0 0.0 0.0 0.0 0.0 
1244.48 703.696 -1389.14 -5.56143 71.245 2.95697 1.00014 0.289776 1.08291 1.00076 0.220284 1.09916 1.0052 0.00402862 1.121 1.0035 0.181009 1.1063 -1.85668 7.66874 -0.62763 -1.73927 14.3398 0.323753 -0.0 0.0 -0.0 0.151138 15.093 2.01723 0.147323 -29.7297 55.7804 3.6645 -61.1348 2.16485 -39.9256 -2.94326 4.05531 -4.65018 24.7636 -16.7641 -0.0 0.0 -0.0 7.57679 -4.91753 -14.6371 -40.0089 39.2005 -58.0279 0.504426 14.0298 -0.0620695 26.7951 -0.15424 3.38834 1.99632 -29.2224 -22.7461 0.0 0.0 0.0 -17.7383 9.24399 5.09987 -9.23236 0.268625 1.38989 35.2615 -1.96189 -4.46168 -17.9915 0.0 0.0 -0.0 0.0 -0.0 19.2538 24.734 -6.23175 1.19966 0.0512567 0.176953 9.47281 1.45931 1.36717 -1.98096 0.0 0.0 0.0 0.0 0.0 
1220.99 704.756 -1395.49 -4.18384 71.163 1.83813 1.24091 0.378951 1.07725 1.2415 0.309639 1.09917 1.24764 0.0965345 1.13786 1.24594 0.275016 1.10834 -1.82483 8.13933 -1.63306 -1.66285 15.9832 -0.684842 -0.0 0.0 -0.0 0.287917 16.8181 2.42022 -2.39365 -29.6531 55.3441 3.45718 -59.7043 1.98453 -41.9339 -3.15914 4.19607 -3.62683 21.3865 -12.7978 -0.0 0.0 -0.0 8.14614 -5.19286 -15.7154 -38.6271 39.6635 -57.571 0.450859 12.5901 -0.0497362 26.3264 -0.165211 3.32948 1.91007 -29.6527 -22.3315 0.0 0.0 0.0 -16.0941 8.27699 3.83697 -17.2575 0.318205 2.61921 40.1353 -0.304698 -4.88985 -16.6789 0.0 0.0 -0.0 0.0 -0.0 14.9448 24.9897 -5.19275 4.9422 0.234837 0.72165 9.69713 2.25436 1.40175 -3.63345 0.0 0.0 0.0 0.0 0.0 
1201.63 700.319 -1400.94 -3.76897 71.0112 1.57889 1.35595 0.412088 1.12664 1.35659 0.339567 1.15058 1.36361 0.118642 1.19375 1.36175 0.305671 1.16004 -2.41206 8.87817 -2.3793 -2.21543 17.9485 -1.29653 -0.0 0.0 -0.0 0.240187 18.0465 2.47756 -4.73008 -29.6047 54.5042 3.35962 -58.9858 1.9006 -43.2619 -3.30456 4.28497 -2.86284 18.1424 -9.99289 -0.0 0.0 -0.0 8.52682 -5.83099 -16.4127 -37.7424 40.3171 -56.8082 0.431912 12.0769 -0.0456892 25.9628 -0.173391 3.28375 1.55102 -29.4438 -20.1898 0.0 0.0 0.0 -14.9512 7.25639 2.53438 -23.9176 0.228596 3.63666 40.3546 1.16074 -4.8988 -14.4702 0.0 0.0 -0.0 0.0 -0.0 11.8866 26.1196 -4.68721 6.83425 0.341121 0.992265 11.7983 4.52266 1.70534 -4.3729 0.0 0.0 0.0 0.0 0.0 
1187.01 700.044 -1402.82 -1.76966 71.2963 -0.673244 1.3985 0.463646 1.38319 1.39948 0.374699 1.40988 1.40897 0.105878 1.45497 1.40617 0.334311 1.42 -3.01699 9.61358 -2.47409 -2.81407 19.4005 -1.20045 -0.0 0.0 -0.0 0.066569 19.1622 2.33726 -6.66857 -30.0289 53.8155 3.23685 -58.0369 1.79591 -44.6424 -3.45786 4.37379 -2.32879 15.8512 -7.89207 -0.0 0.0 -0.0 9.0177 -5.98546 -17.3457 -36.7806 41.0073 -56.0459 0.550109 15.2436 -0.0736139 26.0373 -0.171739 3.29312 0.835241 -29.3689 -16.0948 0.0 0.0 0.0 -13.869 7.43411 2.21036 -27.3383 0.136778 4.1535 36.336 0.372532 -4.54377 -13.5819 0.0 0.0 -0.0 0.0 -0.0 9.7114 25.3105 -4.16477 6.25186 0.307452 0.909336 14.7386 5.61943 2.1138 -5.13008 0.0 0.0 0.0 0.0 0.0 
1171.28 699.904 -1406.6 -1.98551 71.6243 -0.741505 1.50913 0.360196 1.52249 1.51038 0.262598 1.54232 1.51766 -0.0259788 1.5643 1.51431 0.221368 1.54877 -2.96964 9.76544 -2.75721 -2.74823 19.8923 -1.48435 -0.0 0.0 -0.0 -0.0432213 20.3767 2.31102 -9.51883 -29.6593 52.9927 3.0847 -56.7865 1.6677 -45.1775 -3.51785 4.40723 -1.76187 12.8765 -5.79621 -0.0 0.0 -0.0 9.31215 -6.40395 -17.8832 -36.1173 41.5649 -55.5419 0.675674 18.5059 -0.110078 26.4946 -0.161329 3.35061 0.386055 -28.9537 -13.4602 0.0 0.0 0.0 -13.134 7.82966 1.90669 -29.9712 0.0451674 4.54716 33.0176 -0.867856 -4.2304 -13.1583 0.0 0.0 -0.0 0.0 -0.0 8.30428 25.127 -3.86728 4.73096 0.223528 0.691228 17.8289 6.66824 2.53276 -5.49662 0.0 0.0 0.0 0.0 0.0 
